# xmcd CD database file
#
# Track frame offsets:
#	150
#	30786
#	69582
#	104697
#	145532
#	164934
#	201740
#	239653
#
# Disc length: 3648 seconds
#
# Revision: 0
# Processed by: cddbd v1.5.2PL0 Copyright (c) Steve Scherf et al.
# Submitted via: CDex 1.99.1
#
DISCID=790e3e08
DTITLE=Vladimir Kostadinovic - The Left Side Of Life
DYEAR=2016
DGENRE=Jazz
TTITLE0=Face To Face
TTITLE1=Balkan Flood
TTITLE2=Milena
TTITLE3=The Left Side Of Life
TTITLE4=One For Monk
TTITLE5=Frauenfeld
TTITLE6=In Parents Arms
TTITLE7=Comfort Zone
EXTD=YEAR: 2016
EXTT0=
EXTT1=
EXTT2=
EXTT3=
EXTT4=
EXTT5=
EXTT6=
EXTT7=
PLAYORDER=
